<?xml version="1.0" encoding="UTF-8" standalone="no"?>
<!-- Created with Inkscape (http://www.inkscape.org/) -->

<svg
   xmlns:dc="http://purl.org/dc/elements/1.1/"
   xmlns:cc="http://creativecommons.org/ns#"
   xmlns:rdf="http://www.w3.org/1999/02/22-rdf-syntax-ns#"
   xmlns:svg="http://www.w3.org/2000/svg"
   xmlns="http://www.w3.org/2000/svg"
   xmlns:sodipodi="http://sodipodi.sourceforge.net/DTD/sodipodi-0.dtd"
   xmlns:inkscape="http://www.inkscape.org/namespaces/inkscape"
   width="28.222221mm"
   height="268.39001mm"
   viewBox="0 0 99.999997 950.98824"
   id="svg2"
   version="1.1"
   inkscape:version="0.92.4 (5da689c313, 2019-01-14)"
   sodipodi:docname="pipette with fluid.svg"
   inkscape:export-filename="C:\Users\Jason Meurlin\Pipette1.png"
   inkscape:export-xdpi="90"
   inkscape:export-ydpi="90">
  <defs
     id="defs4" />
  <sodipodi:namedview
     id="base"
     pagecolor="#ffffff"
     bordercolor="#666666"
     borderopacity="1.0"
     inkscape:pageopacity="0.0"
     inkscape:pageshadow="2"
     inkscape:zoom="0.5171875"
     inkscape:cx="185.9185"
     inkscape:cy="383.93123"
     inkscape:document-units="px"
     inkscape:current-layer="layer1"
     showgrid="false"
     showborder="true"
     inkscape:window-width="1920"
     inkscape:window-height="1137"
     inkscape:window-x="1912"
     inkscape:window-y="-8"
     inkscape:window-maximized="1" />
  <metadata
     id="metadata7">
    <rdf:RDF>
      <cc:Work
         rdf:about="">
        <dc:format>image/svg+xml</dc:format>
        <dc:type
           rdf:resource="http://purl.org/dc/dcmitype/StillImage" />
        <dc:title></dc:title>
      </cc:Work>
    </rdf:RDF>
  </metadata>
  <g
     inkscape:label="Layer 1"
     inkscape:groupmode="layer"
     id="layer1"
     transform="translate(-2.2491737,-1.3673683)">
    <g
       transform="scale(0.86675332,1.1537308)"
       style="font-style:normal;font-weight:normal;font-size:23.84299278px;line-height:125%;font-family:sans-serif;letter-spacing:0px;word-spacing:0px;fill:#808080;fill-opacity:1;stroke:none;stroke-width:1px;stroke-linecap:butt;stroke-linejoin:miter;stroke-opacity:1"
       id="text3383" />
    <g
       transform="scale(0.88607221,1.1285762)"
       style="font-style:normal;font-weight:normal;font-size:23.87731552px;line-height:125%;font-family:sans-serif;letter-spacing:0px;word-spacing:0px;fill:#808080;fill-opacity:1;stroke:none;stroke-width:1px;stroke-linecap:butt;stroke-linejoin:miter;stroke-opacity:1"
       id="text3387" />
    <g
       transform="scale(0.79831422,1.2526396)"
       style="font-style:normal;font-weight:normal;font-size:16.61532402px;line-height:125%;font-family:sans-serif;letter-spacing:0px;word-spacing:0px;fill:#808080;fill-opacity:1;stroke:none;stroke-width:1px;stroke-linecap:butt;stroke-linejoin:miter;stroke-opacity:1"
       id="text3391" />
    <g
       transform="scale(0.89550678,1.1166861)"
       style="font-style:normal;font-weight:normal;font-size:24.55151176px;line-height:125%;font-family:sans-serif;letter-spacing:0px;word-spacing:0px;fill:#808080;fill-opacity:1;stroke:none;stroke-width:1px;stroke-linecap:butt;stroke-linejoin:miter;stroke-opacity:1"
       id="text3363" />
    <g
       transform="scale(0.88333885,1.1320684)"
       style="font-style:normal;font-weight:normal;font-size:23.80365753px;line-height:125%;font-family:sans-serif;letter-spacing:0px;word-spacing:0px;fill:#808080;fill-opacity:1;stroke:none;stroke-width:1px;stroke-linecap:butt;stroke-linejoin:miter;stroke-opacity:1"
       id="text3367" />
    <g
       id="g4371"
       transform="translate(857.33748,-417.23827)">
      <g
         style="opacity:1"
         id="g3449"
         transform="translate(-759.53553,-138.54415)">
        <g
           id="g3451"
           style="font-style:normal;font-weight:normal;font-size:23.69262505px;line-height:125%;font-family:sans-serif;letter-spacing:0px;word-spacing:0px;fill:#808080;fill-opacity:1;stroke:none;stroke-width:1px;stroke-linecap:butt;stroke-linejoin:miter;stroke-opacity:1"
           transform="matrix(0.89714993,0,0,1.1146409,-45.552776,496.78846)">
          <g
             id="g3453">
            <path
               inkscape:connector-curvature="0"
               style="opacity:1;fill:#cccccc"
               d="m -5,60.361328 c -26.117166,0 -45,25.882833 -45,52.000002 v 190 c 0,14.37777 5.428739,26.85778 14.658203,35.17969 l 23.167969,55.60351 C -12.699859,396.36186 -13,399.83052 -13,403.47266 v 443.26757 c 0,9.52049 1.914493,17.94166 4.9492188,23.35157 l -0.4335938,131.2461 c -0.01833,5.547 3.9793976,10.0117 8.484375,10.0117 4.5049774,0 8,-4.4647 8,-10.0117 V 870.17969 c 3.06409,-5.40602 5,-13.86622 5,-23.43946 V 403.47266 c 0,-3.66797 -0.289174,-7.16017 -0.798828,-10.39649 L 35.341797,337.54102 C 44.571261,329.21911 50,316.7391 50,302.36133 v -190 C 50,86.244161 31.117166,60.361328 5,60.361328 Z"
               id="path3455"
               transform="scale(1.1146409,0.89714993)" />
            <path
               inkscape:connector-curvature="0"
               transform="scale(0.9661187,1.0350695)"
               d="m -4.2726462,441.8942 h -7.2646618 v -2.10721 h 7.2646618 z"
               id="path3457"
               style="font-style:normal;font-weight:normal;font-size:23.84299278px;line-height:125%;font-family:sans-serif;letter-spacing:0px;word-spacing:0px;fill:#808080;fill-opacity:1;stroke:none;stroke-width:1px;stroke-linecap:butt;stroke-linejoin:miter;stroke-opacity:1" />
            <path
               inkscape:connector-curvature="0"
               transform="scale(0.9661187,1.0350695)"
               d="M 11.537307,443.54738 H 8.9644063 v 4.87804 H 6.7291257 v -4.87804 h -8.3008075 v -2.67768 l 8.3939442,-9.77935 h 2.1421439 v 10.5943 h 2.5729007 z m -4.8081813,-1.86273 v -7.82348 l -6.7174838,7.82348 z"
               id="path3459"
               style="font-style:normal;font-weight:normal;font-size:23.84299278px;line-height:125%;font-family:sans-serif;letter-spacing:0px;word-spacing:0px;fill:#808080;fill-opacity:1;stroke:none;stroke-width:1px;stroke-linecap:butt;stroke-linejoin:miter;stroke-opacity:1" />
            <path
               inkscape:connector-curvature="0"
               transform="scale(0.98765232,1.0125021)"
               d="m -4.0106419,371.77174 h -7.2751191 v -2.11026 h 7.2751191 z"
               id="path3461"
               style="font-style:normal;font-weight:normal;font-size:23.87731552px;line-height:125%;font-family:sans-serif;letter-spacing:0px;word-spacing:0px;fill:#808080;fill-opacity:1;stroke:none;stroke-width:1px;stroke-linecap:butt;stroke-linejoin:miter;stroke-opacity:1" />
            <path
               inkscape:connector-curvature="0"
               transform="scale(0.98765232,1.0125021)"
               d="m 11.285763,372.79771 q 0,1.21252 -0.443036,2.32011 -0.443036,1.10759 -1.2125196,1.86542 -0.8394369,0.81612 -2.0053214,1.25915 -1.1542257,0.43138 -2.6815345,0.43138 -1.4223791,0 -2.7398287,-0.30313 -1.31744953,-0.29147 -2.22683947,-0.71119 v -2.46001 h 0.16322383 q 0.95602534,0.60626 2.23849834,1.03763 1.282473,0.41972 2.5183106,0.41972 0.827778,0 1.5972618,-0.23318 0.7811427,-0.23317 1.3874027,-0.81611 0.5129892,-0.50134 0.7694838,-1.20087 0.2681534,-0.69953 0.2681534,-1.62058 0,-0.89773 -0.3147888,-1.51565 -0.30313,-0.61791 -0.8510957,-0.991 -0.60626,-0.44303 -1.4806734,-0.61792 -0.8627546,-0.18654 -1.9353684,-0.18654 -1.0259784,0 -1.9820037,0.13991 -0.9443665,0.1399 -1.63223836,0.27981 v -8.94233 H 11.169175 v 2.04029 H 2.9730066 v 4.61691 q 0.5013304,-0.0466 1.0259784,-0.07 0.5246481,-0.0233 0.90939,-0.0233 1.4107203,0 2.4716752,0.24483 1.0609549,0.23318 1.9470272,0.83944 0.9327076,0.64124 1.4456966,1.65556 0.512989,1.01431 0.512989,2.54162 z"
               id="path3463"
               style="font-style:normal;font-weight:normal;font-size:23.87731552px;line-height:125%;font-family:sans-serif;letter-spacing:0px;word-spacing:0px;fill:#808080;fill-opacity:1;stroke:none;stroke-width:1px;stroke-linecap:butt;stroke-linejoin:miter;stroke-opacity:1" />
            <path
               inkscape:connector-curvature="0"
               transform="scale(0.88983368,1.1238055)"
               d="m -13.02875,295.70286 h -1.857866 q -1.435993,-1.64693 -2.231062,-3.59404 -0.795069,-1.94711 -0.795069,-4.38911 0,-2.442 0.795069,-4.3891 0.795069,-1.94711 2.231062,-3.59404 h 1.857866 v 0.0811 q -0.65715,0.59224 -1.257508,1.37109 -0.592245,0.77073 -1.103361,1.80107 -0.486777,0.9979 -0.795069,2.19861 -0.30018,1.20072 -0.30018,2.53124 0,1.38732 0.292067,2.53936 0.300179,1.15204 0.803182,2.19049 0.486777,0.9979 1.111474,1.80108 0.624697,0.81129 1.249395,1.37109 v 0.0811 z"
               id="path3465"
               style="font-style:normal;font-weight:normal;font-size:16.61532402px;line-height:125%;font-family:sans-serif;letter-spacing:0px;word-spacing:0px;fill:#808080;fill-opacity:1;stroke:none;stroke-width:1px;stroke-linecap:butt;stroke-linejoin:miter;stroke-opacity:1" />
            <path
               inkscape:connector-curvature="0"
               transform="scale(0.88983368,1.1238055)"
               d="M 2.9050859,292.36032 H 1.379851 v -5.15984 q 0,-0.58413 -0.056791,-1.1277 -0.048678,-0.54356 -0.2190497,-0.86808 -0.18659788,-0.34886 -0.53545479,-0.52734 -0.3488569,-0.17849 -1.00600594,-0.17849 -0.64092317,0 -1.28184627,0.32452 -0.6409232,0.3164 -1.2818463,0.81129 0.024339,0.1866 0.040565,0.4381 0.016226,0.24339 0.016226,0.48678 v 5.80076 h -1.5252349 v -5.15984 q 0,-0.60035 -0.056791,-1.13581 -0.048678,-0.54357 -0.2190497,-0.86808 -0.1865979,-0.34886 -0.5354548,-0.51923 -0.3488569,-0.17849 -1.0060059,-0.17849 -0.6246973,0 -1.2575075,0.30829 -0.6246972,0.3083 -1.2493944,0.78696 v 6.7662 h -1.5252358 v -9.06217 h 1.5252358 v 1.00601 q 0.7139397,-0.59224 1.4197664,-0.92488 0.7139397,-0.33263 1.5171219,-0.33263 0.9248764,0 1.5657996,0.38942 0.6490361,0.38943 0.9654411,1.07903 0.9248765,-0.77885 1.6874939,-1.11959 0.7626174,-0.34886 1.63070318,-0.34886 1.49278302,0 2.19860982,0.90865 0.7139397,0.90054 0.7139397,2.52313 z"
               id="path3467"
               style="font-style:normal;font-weight:normal;font-size:16.61532402px;line-height:125%;font-family:sans-serif;letter-spacing:0px;word-spacing:0px;fill:#808080;fill-opacity:1;stroke:none;stroke-width:1px;stroke-linecap:butt;stroke-linejoin:miter;stroke-opacity:1" />
            <path
               inkscape:connector-curvature="0"
               transform="scale(0.88983368,1.1238055)"
               d="M 13.60607,292.36032 H 5.9636699 v -12.08018 h 1.6063644 v 10.6523 H 13.60607 Z"
               id="path3469"
               style="font-style:normal;font-weight:normal;font-size:16.61532402px;line-height:125%;font-family:sans-serif;letter-spacing:0px;word-spacing:0px;fill:#808080;fill-opacity:1;stroke:none;stroke-width:1px;stroke-linecap:butt;stroke-linejoin:miter;stroke-opacity:1" />
            <path
               inkscape:connector-curvature="0"
               transform="scale(0.88983368,1.1238055)"
               d="m 19.666444,287.71971 q 0,2.442 -0.795069,4.38911 -0.795069,1.94711 -2.231062,3.59404 h -1.857865 v -0.0811 q 0.624697,-0.5598 1.249394,-1.37109 0.63281,-0.80318 1.111474,-1.80108 0.503003,-1.03845 0.79507,-2.19049 0.300179,-1.15204 0.300179,-2.53936 0,-1.33052 -0.300179,-2.53124 -0.30018,-1.20071 -0.79507,-2.19861 -0.511116,-1.03034 -1.111474,-1.80107 -0.592245,-0.77885 -1.249394,-1.37109 v -0.0811 h 1.857865 q 1.435993,1.64693 2.231062,3.59404 0.795069,1.9471 0.795069,4.3891 z"
               id="path3471"
               style="font-style:normal;font-weight:normal;font-size:16.61532402px;line-height:125%;font-family:sans-serif;letter-spacing:0px;word-spacing:0px;fill:#808080;fill-opacity:1;stroke:none;stroke-width:1px;stroke-linecap:butt;stroke-linejoin:miter;stroke-opacity:1" />
            <path
               inkscape:connector-curvature="0"
               transform="scale(0.99816848,1.0018349)"
               d="M -3.6863216,698.36284 H -11.16686 v -2.16983 h 7.4805384 z"
               id="path3473"
               style="font-style:normal;font-weight:normal;font-size:24.55151176px;line-height:125%;font-family:sans-serif;letter-spacing:0px;word-spacing:0px;fill:#808080;fill-opacity:1;stroke:none;stroke-width:1px;stroke-linecap:butt;stroke-linejoin:miter;stroke-opacity:1" />
            <path
               inkscape:connector-curvature="0"
               transform="scale(0.99816848,1.0018349)"
               d="M 11.166864,705.08813 H 1.5045013 v -1.82218 H 5.2207946 V 691.30189 H 1.5045013 v -1.63038 q 0.7552467,0 1.6183858,-0.11988 0.8631391,-0.13187 1.3066967,-0.37163 0.5514499,-0.2997 0.8631391,-0.75524 Q 5.6164,687.95722 5.6643522,687.178 h 1.8581466 v 16.08795 h 3.6443652 z"
               id="path3475"
               style="font-style:normal;font-weight:normal;font-size:24.55151176px;line-height:125%;font-family:sans-serif;letter-spacing:0px;word-spacing:0px;fill:#808080;fill-opacity:1;stroke:none;stroke-width:1px;stroke-linecap:butt;stroke-linejoin:miter;stroke-opacity:1" />
            <path
               inkscape:connector-curvature="0"
               transform="scale(0.98460561,1.0156351)"
               d="m -4.0680072,609.48671 h -7.2526768 v -2.10375 h 7.2526768 z"
               id="path3477"
               style="font-style:normal;font-weight:normal;font-size:23.80365753px;line-height:125%;font-family:sans-serif;letter-spacing:0px;word-spacing:0px;fill:#808080;fill-opacity:1;stroke:none;stroke-width:1px;stroke-linecap:butt;stroke-linejoin:miter;stroke-opacity:1" />
            <path
               inkscape:connector-curvature="0"
               transform="scale(0.98460561,1.0156351)"
               d="M 11.320686,616.00714 H -0.39517679 v -2.42918 q 1.22040236,-1.04606 2.44080469,-2.09212 1.2320253,-1.04606 2.2897073,-2.08049 2.2315929,-2.16186 3.0568174,-3.42875 0.8252244,-1.27852 0.8252244,-2.75463 0,-1.34825 -0.8949617,-2.10374 -0.8833389,-0.76711 -2.4756734,-0.76711 -1.057682,0 -2.2897073,0.37193 -1.2320252,0.37194 -2.40593605,1.13905 h -0.1162288 v -2.44081 q 0.82522446,-0.4068 2.19672425,-0.74386 1.3831227,-0.33707 2.6732623,-0.33707 2.6616395,0 4.1726138,1.29014 1.5109739,1.27852 1.5109739,3.47524 0,0.98795 -0.255703,1.84804 -0.24408,0.84847 -0.7322413,1.61558 -0.4532923,0.72062 -1.0693049,1.41799 -0.6043898,0.69738 -1.4761057,1.54585 -1.2436482,1.2204 -2.5686564,2.37106 -1.3250083,1.13905 -2.4756734,2.11537 h 9.3099267 z"
               id="path3479"
               style="font-style:normal;font-weight:normal;font-size:23.80365753px;line-height:125%;font-family:sans-serif;letter-spacing:0px;word-spacing:0px;fill:#808080;fill-opacity:1;stroke:none;stroke-width:1px;stroke-linecap:butt;stroke-linejoin:miter;stroke-opacity:1" />
            <path
               inkscape:connector-curvature="0"
               d="m -3.9275619,538.0463 h -7.2188471 v -2.09393 h 7.2188471 z"
               id="path3481" />
            <path
               inkscape:connector-curvature="0"
               d="m 9.8738553,536.24158 q 0.5552957,0.49746 0.9139247,1.24942 0.358628,0.75196 0.358628,1.94353 0,1.18001 -0.42804,2.16335 -0.428041,0.98333 -1.2031413,1.71216 -0.8676498,0.8098 -2.0476536,1.20314 -1.1684351,0.38176 -2.5682435,0.38176 -1.4345144,0 -2.8227542,-0.34706 -1.38823973,-0.33549 -2.2790269,-0.74039 v -2.41785 h 0.17352996 q 0.98333649,0.64784 2.31373294,1.07588 1.3303964,0.42805 2.5682435,0.42805 0.7288259,0 1.5502011,-0.24295 0.8213752,-0.24294 1.3303964,-0.71725 0.5321586,-0.50902 0.7866692,-1.12216 0.2660793,-0.61314 0.2660793,-1.55021 0,-0.92549 -0.3007853,-1.52706 -0.2892166,-0.61314 -0.8098065,-0.9602 -0.5205899,-0.35863 -1.2609845,-0.48588 -0.7403945,-0.13883 -1.5964757,-0.13883 H 3.7771691 v -1.92039 h 0.8098065 q 1.758437,0 2.7996169,-0.72883 1.0527484,-0.74039 1.0527484,-2.15177 0,-0.62471 -0.2660793,-1.08746 -0.2660792,-0.47431 -0.7403945,-0.7751 -0.4974526,-0.30078 -1.0643171,-0.41647 -0.5668646,-0.11569 -1.2841218,-0.11569 -1.0990231,0 -2.3368702,0.39334 -1.2378471,0.39333 -2.33687028,1.11059 H 0.29500107 v -2.41785 q 0.82137523,-0.4049 2.18647763,-0.74039 1.3766711,-0.34706 2.6607928,-0.34706 1.2609845,0 2.2211836,0.23137 0.9601992,0.23137 1.7352997,0.74039 0.8329439,0.5553 1.2609842,1.34197 0.428041,0.78667 0.428041,1.83942 0,1.43451 -1.0180426,2.5104 -1.0064739,1.06431 -2.3831449,1.34196 v 0.16196 q 0.5552959,0.0925 1.2725531,0.39334 0.7172572,0.28921 1.2147097,0.72882 z"
               id="path3483" />
          </g>
        </g>
        <rect
           y="1293.4855"
           x="-50.204578"
           height="2.1213202"
           width="5.6568542"
           id="rect3485"
           style="opacity:1;fill:#666666;fill-opacity:1" />
        <rect
           style="opacity:1;fill:#666666;fill-opacity:1"
           id="rect3487"
           width="5.6568542"
           height="2.1213202"
           x="-50.204578"
           y="1312.5773" />
        <rect
           y="1333.7905"
           x="-50.204578"
           height="2.1213202"
           width="5.6568542"
           id="rect3489"
           style="opacity:1;fill:#666666;fill-opacity:1" />
        <rect
           style="opacity:1;fill:#666666;fill-opacity:1"
           id="rect3491"
           width="5.6568542"
           height="2.1213202"
           x="-50.911686"
           y="1256.7159" />
        <rect
           y="1207.9255"
           x="-51.61879"
           height="2.1213202"
           width="5.6568542"
           id="rect3493"
           style="opacity:1;fill:#666666;fill-opacity:1" />
        <rect
           y="1230.553"
           x="-50.911686"
           height="2.1213202"
           width="5.6568542"
           id="rect3495"
           style="opacity:1;fill:#666666;fill-opacity:1" />
        <g
           id="g3497">
          <rect
             y="1165.4991"
             x="-50.911682"
             height="2.1213202"
             width="5.6568542"
             id="rect3499"
             style="opacity:1;fill:#666666;fill-opacity:1" />
          <rect
             style="opacity:1;fill:#666666;fill-opacity:1"
             id="rect3501"
             width="5.6568542"
             height="2.1213202"
             x="-50.911682"
             y="1143.5789" />
          <rect
             style="opacity:1;fill:#666666;fill-opacity:1"
             id="rect3503"
             width="5.6568542"
             height="2.1213202"
             x="-50.911682"
             y="1121.6586" />
        </g>
        <g
           transform="translate(0,-93.338095)"
           id="g3505">
          <rect
             style="opacity:1;fill:#666666;fill-opacity:1"
             id="rect3507"
             width="5.6568542"
             height="2.1213202"
             x="-50.911682"
             y="1165.4991" />
          <rect
             y="1143.5789"
             x="-50.911682"
             height="2.1213202"
             width="5.6568542"
             id="rect3509"
             style="opacity:1;fill:#666666;fill-opacity:1" />
          <rect
             y="1121.6586"
             x="-50.911682"
             height="2.1213202"
             width="5.6568542"
             id="rect3511"
             style="opacity:1;fill:#666666;fill-opacity:1" />
        </g>
        <g
           id="g3513"
           transform="translate(0,-183.84776)">
          <rect
             y="1165.4991"
             x="-50.911682"
             height="2.1213202"
             width="5.6568542"
             id="rect3515"
             style="opacity:1;fill:#666666;fill-opacity:1" />
          <rect
             style="opacity:1;fill:#666666;fill-opacity:1"
             id="rect3517"
             width="5.6568542"
             height="2.1213202"
             x="-50.911682"
             y="1143.5789" />
          <rect
             style="opacity:1;fill:#666666;fill-opacity:1"
             id="rect3519"
             width="5.6568542"
             height="2.1213202"
             x="-50.911682"
             y="1121.6586" />
        </g>
      </g>
      <rect
         style="opacity:0.6;fill:#e6e6e6;fill-opacity:1"
         id="rect3521"
         width="74.953316"
         height="226.98128"
         x="-842.26703"
         y="438.6423"
         ry="32.653446" />
      <path
         id="rect4360"
         d="m -804.60547,784.38867 c -4.92335,0 -8.88867,3.96338 -8.88867,8.88672 v 423.83591 c 0,3.2099 1.69145,6.003 4.22852,7.5645 v 131.1953 c 0,5.4614 1.76137,9.8574 3.94921,9.8574 2.18785,0 3.94922,-4.396 3.94922,-9.8574 v -130.4863 c 3.31038,-1.2905 5.64844,-4.4956 5.64844,-8.2735 V 793.27539 c 0,-4.92334 -3.96338,-8.88672 -8.88672,-8.88672 z"
         style="opacity:1;fill:#ffb3b3;fill-opacity:0.43030306"
         inkscape:connector-curvature="0" />
    </g>
  </g>
</svg>
